<svg width="876" height="112" viewBox="0 0 876 112" fill="none" xmlns="http://www.w3.org/2000/svg">
<path d="M58.3428 71.1084V48.7695H109.612V94.5459C99.7979 101.235 91.1064 105.801 83.5381 108.242C76.0186 110.635 67.083 111.831 56.7314 111.831C43.9873 111.831 33.5869 109.658 25.5303 105.312C17.5225 100.967 11.2969 94.4971 6.85352 85.9033C2.45898 77.3096 0.261719 67.4463 0.261719 56.3135C0.261719 44.5947 2.67871 34.4141 7.5127 25.7715C12.3467 17.0801 19.4268 10.4883 28.7529 5.99609C36.0283 2.5293 45.8184 0.795898 58.123 0.795898C69.9883 0.795898 78.8506 1.87012 84.71 4.01855C90.6182 6.16699 95.501 9.51172 99.3584 14.0527C103.265 18.5449 106.194 24.2578 108.147 31.1914L76.1406 36.9043C74.8223 32.8516 72.5762 29.751 69.4023 27.6025C66.2773 25.4541 62.2734 24.3799 57.3906 24.3799C50.1152 24.3799 44.3047 26.9189 39.959 31.9971C35.6621 37.0264 33.5137 45.0098 33.5137 55.9473C33.5137 67.5684 35.6865 75.8691 40.0322 80.8496C44.4268 85.8301 50.5303 88.3203 58.3428 88.3203C62.0537 88.3203 65.5938 87.7832 68.9629 86.709C72.332 85.6348 76.1895 83.8037 80.5352 81.2158V71.1084H58.3428ZM180.379 92.2754H142.586L137.386 110H103.475L143.831 2.62695H180.013L220.369 110H185.652L180.379 92.2754ZM173.421 69.0576L161.556 30.459L149.764 69.0576H173.421ZM215.696 2.62695H259.349L276.194 67.959L292.967 2.62695H336.473V110H309.373V28.1152L288.353 110H263.816L242.869 28.1152V110H215.696V2.62695ZM342.64 2.62695H431.556V25.5518H375.892V42.6172H427.527V64.5166H375.892V85.6836H433.167V110H342.64V2.62695ZM467.034 56.3867C467.034 38.8574 471.917 25.21 481.683 15.4443C491.448 5.67871 505.047 0.795898 522.479 0.795898C540.35 0.795898 554.119 5.60547 563.787 15.2246C573.455 24.7949 578.289 38.2227 578.289 55.5078C578.289 68.0566 576.165 78.3594 571.917 86.416C567.718 94.4238 561.614 100.674 553.606 105.166C545.647 109.609 535.711 111.831 523.797 111.831C511.688 111.831 501.653 109.902 493.694 106.045C485.784 102.188 479.363 96.084 474.432 87.7344C469.5 79.3848 467.034 68.9355 467.034 56.3867ZM500.213 56.5332C500.213 67.373 502.215 75.1611 506.219 79.8975C510.271 84.6338 515.765 87.002 522.698 87.002C529.827 87.002 535.345 84.6826 539.251 80.0439C543.157 75.4053 545.11 67.0801 545.11 55.0684C545.11 44.9609 543.06 37.5879 538.958 32.9492C534.905 28.2617 529.388 25.918 522.405 25.918C515.716 25.918 510.345 28.2861 506.292 33.0225C502.239 37.7588 500.213 45.5957 500.213 56.5332ZM564.095 2.62695H598.812L622.981 79.8975L646.785 2.62695H680.477L640.633 110H604.671L564.095 2.62695ZM676.39 2.62695H765.306V25.5518H709.642V42.6172H761.277V64.5166H709.642V85.6836H766.917V110H676.39V2.62695ZM770.301 110V2.62695H825.599C835.853 2.62695 843.689 3.50586 849.109 5.26367C854.529 7.02148 858.899 10.293 862.22 15.0781C865.54 19.8145 867.2 25.6006 867.2 32.4365C867.2 38.3936 865.931 43.5449 863.392 47.8906C860.853 52.1875 857.361 55.6787 852.918 58.3643C850.086 60.0732 846.204 61.4893 841.272 62.6123C845.228 63.9307 848.108 65.249 849.915 66.5674C851.136 67.4463 852.894 69.3262 855.188 72.207C857.532 75.0879 859.095 77.3096 859.876 78.8721L875.916 110H838.416L820.691 77.1875C818.445 72.9395 816.443 70.1807 814.686 68.9111C812.293 67.251 809.583 66.4209 806.556 66.4209H803.626V110H770.301ZM803.626 46.1328H817.615C819.129 46.1328 822.059 45.6445 826.404 44.668C828.602 44.2285 830.384 43.1055 831.751 41.2988C833.167 39.4922 833.875 37.417 833.875 35.0732C833.875 31.6064 832.776 28.9453 830.579 27.0898C828.382 25.2344 824.256 24.3066 818.201 24.3066H803.626V46.1328Z" fill="white"/>
</svg>
